<svg class="" xmlns="http://www.w3.org/2000/svg" viewBox="0 0 1920.5 837.48">
				<defs>
					<style>
						.cls-1 {
							fill: #DBDBDB;
						}
					</style>
					<filter id="dropshadow" height="180%">
						<feGaussianBlur in="SourceAlpha" stdDeviation="6" /> <!-- stdDeviation is how much to blur -->
						<feOffset dx="5" dy="0" result="offsetblur" /> <!-- how much to offset -->
						<feComponentTransfer>
							<feFuncA type="linear" slope="0.7" /> <!-- slope is the opacity of the shadow -->
						</feComponentTransfer>
						<feMerge>
							<feMergeNode /> <!-- this contains the offset blurred image -->
							<feMergeNode in="SourceGraphic" />
							<!-- this contains the element that the filter is applied to -->
						</feMerge>
					</filter>

				</defs>
				<g id="Layer_2" data-name="Layer 2">
					<g id="Layer_1-2" data-name="Layer 1">
						<path class="cls-1" style="filter:url(#dropshadow)"
						d="M0,58.13c3.68-2.88,24.71-5.52,29.34-3.48C36.71,57.9,45,58.18,52,61c7.23,2.91,13.65,3.9,20.91,2.52a15.16,15.16,0,0,1,3.5,0c6.08.31,11.9,0,17.07-4.05,1.56-1.21,4-1.39,6.16-1.72,4.26-.65,8.56-1.52,12.83-1.5,6.58,0,13.28.11,19.7,1.34,5.13,1,9.9,3.81,14.9,5.63,4.2,1.52,8.46,3.8,12.77,4,24.24,1,48.51,1.79,72.78,2,7.92.08,14.65,1.58,20.64,6.9,2.41,2.14,5.55,4.22,8.61,4.7a143.65,143.65,0,0,0,23.76,2.13c10.93-.09,21.85-1.21,32.78-1.94a26.31,26.31,0,0,0,2.85-.85c5-1,9.94-2.44,15-2.82,6.46-.49,13-.1,19.49-.13,7.78,0,15.34,0,23-2.92,5.14-2,11.51-.56,17.29-1.07,4.77-.42,9.93-.47,14.13-2.4,7-3.2,14.07-3.52,21.44-3.45,12,.12,24,.06,36,0,2,0,4.23.1,5.86-.76,5.72-3,11.8-2.85,18-3.21,11.7-.68,23.18-2.3,31.62-12,2.8-3.21,6.27-3.09,9.9-.73,3.88,2.54,7.83,6.1,12.08,6.65,4.87.62,12.11.08,14.63-3,2.69-3.28,4.9-4,8.34-4.88a13.14,13.14,0,0,0,6.44-4.37c2.79-3.48,6.35-4.27,10.41-5,8.89-1.7,17.78-3.59,26.48-6.08,7.13-2.05,14.53-3.5,20.81.31,5.57,3.38,10.86,4,17,4,9.27.11,18.52,1.49,27.79,1.75,11.65.34,23.35-.37,35,.23a32.74,32.74,0,0,0,23.46-8.09c7.11-6,14.67-8.87,23.84-7.73a21.35,21.35,0,0,0,17.87-5.87,21.31,21.31,0,0,1,14.89-6c2.42,0,5-1.59,7.22-3a118.7,118.7,0,0,0,9.62-7.16c3.51-2.8,7.13-3,11.21-1.24A21.59,21.59,0,0,0,827.16,3c9.56.64,19.35-1.46,28.62,2.59a7.55,7.55,0,0,0,3,.13c11.4-.23,22.84-1.16,34.19-.48,8.63.52,17.15,3,25.68,4.81,1.39.29,2.54,1.56,3.88,2.2,8.46,4,16.91,8,25.46,11.83,1.42.64,3.29.47,4.94.38,11.93-.61,24.38-3.74,35.65-1.32,13.33,2.86,25.63-1.86,38.38-.67a10.92,10.92,0,0,0,5-.29c13-5.37,26.59-3.12,40-3.5,2.13-.06,4.6-.1,6.35.86,6.54,3.59,13.55,3.22,20.5,2.88,6.25-.3,11.59,1.48,15.88,5.83,4.51,4.57,8.68,9.47,12.92,14.28a8,8,0,0,1,1.29,2.69c2.1,6,5.47,8.51,11.81,8.65,3.5.07,7-.29,10.49.12,2.89.34,5.69,1.5,8.53,2.3,4.07,1.14,8.09,3.06,12.2,3.26,8,.4,16-.38,23.16,4.43,1.67,1.12,4.14,1.27,6.27,1.45,24.07,2,24,1.9,43.79-12.68,3.81-2.8,8.39-4.53,12.48-7a33.5,33.5,0,0,0,6.72-5c4.44-4.51,7.48-5.08,13.43-3A42.79,42.79,0,0,0,1289.21,40c7.81.43,15.67,0,23.47.49,13.71.93,27.4,2.26,41.09,3.58,8.24.8,16.44,1.89,24.66,2.86,2.79.33,5.6,1.08,8.37.94,8.44-.44,16.85-1.55,25.29-1.77a32,32,0,0,0,16.49-4.8c2.46-1.52,5.46-2.2,8.26-3.14,3.54-1.2,7.33-1.86,10.63-3.51,3.66-1.82,7-2.68,10.94-1.11a194.68,194.68,0,0,0,19.15,6.94c3.29.93,7.84,1.58,10.4,0a30.8,30.8,0,0,1,18.57-4.4,6.78,6.78,0,0,0,3.4-.59c9.82-5.15,20.38-5.45,31.14-5.41,4.16,0,8.32-1.65,12.48-2.54,5-1.06,9.91-2.73,14.93-3,9.3-.54,18.86.92,27.92-.68,7.73-1.37,13.42-.15,19.25,4.69,6,5,13,7,21,4.61,2.81-.83,5.92-.81,8.9-.91,12-.43,23.92-.72,35.88-1.14,3.75-.13,7,.64,8.9,4.21,2.13,3.91,0,6.51-2.57,9.22-3.15,3.39-2.26,6.48,2.29,7,3.34.38,7.7.64,10.1-1.12,6.68-4.88,13.47-6.75,21.42-4.47a2.7,2.7,0,0,0,2,0c1.28-.89,3.07-1.82,3.43-3.09,1.57-5.47,3.78-7.17,9-5.09,4.15,1.66,7.13.55,10.66-1.62a27.87,27.87,0,0,1,10.52-3.77c15.4-2.15,29.45,3.26,43.53,8.35A19,19,0,0,0,1806.4,42c12.82.37,25.64.42,38.13-3.15,5.45-1.55,10.08-.14,14.45,3.29,6.82,5.34,13.68,10.65,20.79,15.6a22.64,22.64,0,0,0,9,3.7c10.15,1.62,20.27,4.44,30.71,2.13a2.25,2.25,0,0,1,1,.09L1920.1,695v142.5c-8.21-.24-15.57.39-23.39-2.56-7.49-2.82-14.36-5.9-19.82-11.56-3.53-3.67-7.34-5.59-12.39-4.86-7,1-12.71-1.18-17-7-3.16-4.26-7.46-5.67-12.72-5.2s-10.22.08-14.88-3c-1.24-.81-4.28-.28-5.66.75-3.79,2.83-7.43,2.91-11.06.36-4.61-3.23-9-5.92-14-.71a3.14,3.14,0,0,1-1.87.63c-9.58.69-19.16,1.56-28.75,1.9-3.39.12-6.83-1.09-10.25-1.7-10.68-1.9-21.32,3.7-32,.18-.65-.21-1.57.51-2.38.59-3.78.38-7.62,1.23-11.36.92-10.54-.89-21.06-2.15-31.55-3.54-2-.27-3.77-1.88-5.69-2.75-3-1.39-6-3.32-9.24-3.89-6-1.07-11.32-6.24-10.15-11.38,1.86-8.18-1.25-15.21-8-18.16-6.86-3-14.06-5.28-21-8.46-4.2-1.92-7.8-3.75-10.89-7-1.39-1.49-3.31-3.56-5-3.52-7,.14-14.16-1.73-21,2.24-3.64,2.11-8.13,3-12.35,3.76a7.82,7.82,0,0,1-5.87-1.49c-4.46-4-9.19-3.84-13.86-1.26-3.58,2-6.5,5.13-10.06,7.16-2.34,1.35-5.47,2.62-7.93,2.18-4.75-.87-9.29-2.94-13.89-4.58a7.84,7.84,0,0,1-3-1.66c-2.5-2.63-5.2-2.86-8.62-1.93-2.66.72-5.62.29-8.43.57-1.77.17-4,.16-5.2,1.17-6.41,5.25-14.23,4.93-21.68,5.6-2.91.26-6.11-1-9-2.18-6.12-2.49-11.93-7.09-18.17-7.7-16.49-1.59-33.16-1.46-49.74-2.18-2.57-.11-6.11-.24-7.45-1.84-5.59-6.63-12.35-9.7-20.91-9.15-.64,0-1.3-.42-1.94-.42-4.61,0-9.26-.34-13.82.16-6.67.73-13.22,2.6-19.74,3.85-11.67,2.25-23.8-.19-35.85,3.38-7.32,2.17-15.8.48-22.93,5.12-1.36.89-3.55.68-5.35.69-9,.07-18,0-27,.08a29.12,29.12,0,0,0-5.82,1c-3.5.75-7,1.66-10.48,2.4-6.51,1.38-13.43,1-18.6,6.8-6.28,7-6.61,6.83-14.15,1.1-3.37-2.57-6.28-3.7-10.86-1.78-3.2,1.34-3.33,5.21-5.2,5.44-4.88.61-6.91,4-9.67,7.07-1.18,1.3-3.49,1.68-5.35,2.24-5.65,1.73-11.52,2.91-17,5.12-6.21,2.53-11.73,3.26-17.07-1.7a7.68,7.68,0,0,0-4.47-1.86c-14.75-.6-29.53-.69-44.25-1.64a21.69,21.69,0,0,0-19,7.93c-4.19,4.88-9.07,6.71-15.4,6.29-2.77-.19-6.27.41-8.35,2-4.64,3.66-8.21,8.68-15,8.8-1.34,0-2.74,1.74-4,2.86-2.08,1.91-3.85,4.22-6.11,5.87a8.58,8.58,0,0,1-5.34,1.68c-5.18-.48-10.32-1.5-15.47-2.29-2.44-.37-4.89-.69-7.34-1s-5.24-1.3-7.67-.88c-12.4,2.14-24.22-.57-36-3.78-1.52-.42-2.8-1.71-4.19-2.58-5.55-3.47-11.08-6.95-16.66-10.35a4.46,4.46,0,0,0-2.41-.46c-7.28.39-14.55,1.06-21.83,1.2-3.36.07-6.74-.84-10.12-1.3-1.67-.23-3.4-.82-5-.58-3.86.57-7.66,1.55-11.49,2.35-3.52.74-7,1.92-10.56,2.09-8.89.44-17.81.74-26.7.46-4.49-.14-8.94-1.62-13.39-2.56-2.55-.55-6.07-.39-7.42-2-4.72-5.65-9.47-11.55-12.71-18.09-2.95-5.95-3.78-7.4-10.38-7.82-3.66-.24-7.28-1.43-10.86-2.4-2.79-.75-5.46-2.48-8.23-2.6-5.37-.23-10.5-.15-15.13-3.79-1.74-1.36-4.71-1.29-7.15-1.6a43.94,43.94,0,0,0-8.92-.56c-2.57.2-5.6.6-7.49,2.1-4,3.2-7.3,7.29-11.11,10.78-4.59,4.19-9.28,8.3-14.22,12.06-1.31,1-3.73,1-5.55.76-4.66-.62-9.25-2-13.92-2.41-10.23-.9-20.51-1.26-30.74-2.08-5.94-.47-12.41-.11-17.63-2.41-11.19-4.93-22-.72-33-.49-1.82,0-3.64,1.48-5.41,2.37-5.8,2.92-11.54,6-17.43,8.75-1.12.52-3,.11-4.24-.42a98.9,98.9,0,0,1-11.69-5.5c-4.15-2.43-7.66-2.61-11.19,1a9.18,9.18,0,0,1-4,1.88c-4.69,1.36-9.4,2.71-14.16,3.81A48,48,0,0,1,519.76,782c-5.4,0-10.46.24-15.15,3.67-1.92,1.4-5,1.47-7.64,1.57-6.32.26-12.89-.82-18.92.55-5.68,1.29-9.15-.1-12.72-4-3.1-3.38-6.81-5.78-11.86-5.08s-10.18,1.25-15.29,1.57c-4.81.3-9.68-.11-14.46.43-3.1.35-6,1.22-8.07-1.85-2.2-3.24-1.3-6.17.77-9.22,2.84-4.18,1.49-6.84-3.48-6.59a11,11,0,0,0-6.66,2.58c-3.11,3-6.09,4.07-10.32,2.8-2.66-.8-5.64-1-5.85,3.56-.17,3.6-2.47,4.54-6.05,3.5-1.75-.51-4.39-.36-5.76.65-6.73,5-17.58,5.7-25.24,2-5.45-2.66-11.2-5.37-17.09-6.33a48.16,48.16,0,0,0-24.07,2.54c-3.93,1.41-7.09.4-9.94-2.54q-7-7.18-14.18-14.1c-1.4-1.34-3.25-3.07-4.93-3.1-6.64-.11-12.61-4.79-19.76-2.32-2.66.92-6.19-1.08-9.22-.77-8.79.87-14.69,9.3-23.88,9.49-.64,0-1.33,1-1.88,1.57-2.45,2.71-4.62,5.75-7.36,8.11-1.91,1.65-4.58,2.43-6.94,3.53-1.77.82-4.26,1-5.25,2.38a23,23,0,0,0-4.25,8.83c-.6,3.16-2.14,3.26-4.65,3.79a26.1,26.1,0,0,0-8.75,3.74c-2.46,1.62-4.06,4.53-6.53,6.12s-5.5,2.2-8.28,3.26a33.68,33.68,0,0,0-5.74,2.34c-6.63,4.06-14.66,5.69-20.18,11.69-.36.4-1.29.23-1.91.46-2.6,1-5.87,1.29-7.66,3.09-5.55,5.58-12.19,6.08-19.36,5.67-4.49-.25-9,.22-13.49-.16a12.28,12.28,0,0,1-6.76-2.45c-3.54-3.1-5.83-1.89-9.06.57a18.45,18.45,0,0,1-9.27,3.64c-6.79.55-13.66,0-20.48.23-4.76.16-8.71-.81-12.18-4.42-1.19-1.23-4.23-1.77-6-1.21-6.32,2-12.27,5.86-18.69,6.83-8,1.22-16.39.29-25.25.29Z" />
					</g>
				</g>
			</svg>