<svg class="mobile-nav-bg js-mobile-nav--bg" xmlns="http://www.w3.org/2000/svg" viewBox="0 0 89.96948 316.00042">
		<defs>
					<style>
						.cls-1 {
							fill: #DBDBDB;
						}
                        .fill-red{
                            fill:#c7493a;
                        }
                        .shadow{
                            filter:url(#dropshadow)
                        }
					</style>
					<filter id="dropshadow" height="180%">
						<feGaussianBlur in="SourceAlpha" stdDeviation="6" /> <!-- stdDeviation is how much to blur -->
						<feOffset dx="5" dy="0" result="offsetblur" /> <!-- how much to offset -->
						<feComponentTransfer>
							<feFuncA type="linear" slope="0.7" /> <!-- slope is the opacity of the shadow -->
						</feComponentTransfer>
						<feMerge>
							<feMergeNode /> <!-- this contains the offset blurred image -->
							<feMergeNode in="SourceGraphic" />
							<!-- this contains the element that the filter is applied to -->
						</feMerge>
					</filter>

				</defs>
			<g class="shadow fill-red" id="e80ec14d-487f-4f25-a223-bbeadfe1e144" data-name="Layer 2">
				<g class="fill-red" id="a8b7cafc-7015-4644-9f83-7281ae3da9be" data-name="Layer 1">
					<path class="shadow fill-red" d="M32.81762,138.52734c-2.49252.229-2.575-3.32529-2.80462-4.79349-.17186-1.09918,2.21706-1.73888.43008-2.98419a3.58019,3.58019,0,0,1-.24644-2.62772c1.91006-1.21629.12929-2.6711.245-4.00409.13325-1.53593-1.77892-3.66206,1.2919-4.30853.52989-.11154.814-.80055.53978-.837-3.96164-.52673-3.21812-5.44427-6.34486-6.69546a3.23109,3.23109,0,0,
						1-.57665-3.295c3.0705-7.45859-.50365-13.811-3.96332-19.72a69.881,69.881,0,0,1-7.89271-20.80253c-.6581-5.7549-3.54045-10.6783-5.94634-15.76962C5.67851,48.73048,4.1076,44.74038,4.79987,40.23738A7.67592,7.67592,0,0,0,4.70712,35.722a4.32894,4.32894,0,0,0-.62-1.15447C2.30109,33.48392.99181,32.3817,3.00548,30.23866c.83957-.8935,1.21948-2.20713,
						1.964-3.23824,1.92768.13051.24752-1.54291,1-2-.445-1.64149.81227-2.419,1.77623-3.23362,1.4887-1.25809,1.85359-3.11767.97125-4.35551-1.90061-2.66642.29641-4.48508.98252-6.48135.47153-1.37188,2.42555-2.13675,2.6707-3.859.18329-1.28759,2.75723-.21915,2.03229-2.09477C13.7334,3.245,16.29985,3.425,15.96948,2.00042,17.71327.01976,17.71327.00352,
						20.02441.003,39.227-.00153,89.64359.00042,89.64359.00042l.32589,316L48.61838,313.041s-3.95359-.964-4.1342-3.64725c-.21068-3.12985.1318-6.28958-.5147-9.39334.02657-1.728-.31412-3.52948,1-5,3.64492-3.22946,2.78745-7.95975,4-12a3.89321,3.89321,0,0,0-.00282-.4921c-.17773-1.38366.95546-2.25091,1.4536-3.33544.63017-1.372-.81781-2.06263-.52553-3.31928a14.94513,14.94513,0,0,0,
						.04878-4.41293c-.092-1.2284.48442-2.5347-.6519-3.67853-.96153-.96787.11212-2.46411-.67-3.65079-1.46075-2.21625-.31936-4.74606-.6521-7.11093a13.015,13.015,0,0,0,0-8c-1.52434-2.37924-1.51629-5.158-1.963-7.80392-.17462-1.03431-.4393-2.48621,1.51524-2.24826a24.86007,24.86007,0,0,0,2.4478-6.94782c-1.06415-1.52051-.49981-3.3667-1-5,.3808-.98418-.92685-2.53117,1-3a15.25024,
						15.25024,0,0,0,0-8,13.90188,13.90188,0,0,0-.01123-1.48128c-.05649-.52444.6187-6.11091.73911-6.77275.17061-.93794.6009-2.16867.19131-2.8054-1.03789-1.61348-1.12474-3.79857-2.91919-4.94057-.61041-1.26407-1.30746-2.50647-1-4l-1-2c-1.0114-1.887-.15083-4.086-1-6a.84726.84726,0,0,1-1-1c-2.91795-3.52051-2.86023-7.78494-3-12,.07622-2.04422-.0655-4.006.882-6.05867.87208-1.8894-.22687-6.59239-1.60207-10.096-.39049-.99489-.10883-1.91026-.27988-2.84538-.73706-.783-.4217-1.81395-.6185-2.7215"/>
					<path class="fill-red" d="M40.9162,156.14849c.19679.90755-.11856,1.93854.6185,2.7215.17105.93512-2.54926,1.42471.27988,2.84538.9745.48935-.58511,2.86017-.25719,4.20328.6241,2.55615,2.431,4.65407,1.85925,5.89267-.94745,2.05264-.80572,4.01445-.88194,6.05867.13977,4.215.08205,8.47949,3,12a.84726.84726,0,0,0,1,1c.84917,1.914-.0114,4.113,1,6l1,2c-.30746,1.49353.38959,2.73593,1,4,1.79445,1.142,1.8813,3.32708,2.91919,4.94056.40959.63674-.02071,1.86746-.19132,2.80541-.1204.66183-.79559,6.2483-.7391,
						6.77275A13.90186,13.90186,0,0,1,51.5347,218.87a15.25044,15.25044,0,0,1,0,8c-1.92685.46882-.6192,2.01582-1,3,.50018,1.6333-.06415,3.47949,1,5a24.86033,24.86033,0,0,1-2.4478,6.94781c-1.95454-.23794-1.68986,1.214-1.51524,2.24826.44674,2.64594.4387,5.42468,1.963,7.80393a13.015,13.015,0,0,1,0,8c.33273,2.36486-.80865,4.89468.6521,7.11093.78215,1.18667-.2915,2.68292.67,3.65078,1.13632,1.14383.5599,2.45014.6519,3.67853a14.9452,14.9452,0,0,1-.04878,4.41294c-.29229,1.25665,1.1557,
						1.94726.52552,3.31927-.49813,1.08453-1.63133,1.95178-1.45359,3.33545a3.89507,3.89507,0,0,1,.00282.4921c-1.21256,4.04025-.35509,8.77053-4,12-1.31412,1.47052-.97343,3.272-1,5,.6465,3.10376.304,6.26348.51469,9.39334.18062,2.68329,4.13421,3.64724,4.13421,3.64724L89.5347,315.87s-10-206.33334-10-309c-.1745-1.27378.3353-2.60777-.3259-4q-28.82091,0-57.61917.00256c-2.31114.00054-2.31114.01678-4.05493,1.99744.33037,1.42457-2.23608,1.24461-1.567,2.97573.725,1.87562-1.849.80719-2.03228,2.09477-.24515,
						1.72226-2.19918,2.48714-2.6707,3.859-.68612,1.99628-2.88314,3.81493-.98252,6.48136.88234,1.23784.51744,3.09742-.97125,4.3555C8.347,25.451,7.08966,26.22849,7.5347,27.87c-.75249.45709.92767,2.1305-1,2-.74452,1.0311-1.12444,2.34473-1.964,3.23824-2.01368,2.143-.7044,3.24525,1.08168,4.32888a4.32932,4.32932,0,0,1,.62,1.15446A7.67587,7.67587,0,0,1,6.36508,43.107C5.67282,47.61,7.24373,51.6,9.11461,55.55919c2.40588,5.09131,5.28824,10.01471,5.94633,15.76961a69.88124,69.88124,0,0,0,7.89272,20.80253c3.45967,5.909,
						7.03381,12.26144,3.96332,19.72a3.23109,3.23109,0,0,0,.57664,3.295c3.12674,1.25119,2.38323,6.16874,6.34487,6.69547.27421.03645-.00989.72546-.53978.837-3.07082.64647-1.15865,2.7726-1.2919,4.30854-.11566,1.333,1.66511,2.78779-.245,4.00409a3.58017,3.58017,0,0,0,.24644,2.62771c1.787,1.24532-.60194,1.885-.43008,2.98419.22958,1.46821.3121,5.02247,2.80462,4.7935,0,0,1.01879,9.381,1.72221,2.69048s1.00411,2.20089.70343,2.78633c-.21531.41922,4.86488,4.17759.6544,2.75713S40.9162,156.14849,40.9162,156.14849Z"/>
					<path class="shadow fill-red" d="M4.96948,35.00042h-1c-.98744-.64486-2.53587-.67836-2.92584-1.898C.75627,32.20363,1.0099,31.13945,0,30.53094a15.93328,15.93328,0,0,1,2.08041-2.087,20.52719,20.52719,0,0,1,2.88907-1.44354c.19945,1.37856-1.11464,2.60485-.1087,4.20406.45868.7292-.47756.66008-1.05048.16422-.88971-.77005-1.05986.408-1.3509.71994-.875.93768.16479.73651.64746.92575A2.60728,2.60728,0,0,1,4.96948,35.00042Z"/>
					<path class="shadow fill-red" d="M48.96948,283.00042c0,1.80942.72942,4.25916-.16766,5.281-1.41309,1.60962.09,3.65213-1.49048,4.89557-.74763.58816.37.67007.35866,1.0361-.04321,1.39309-.93857,1.64679-2.70052.78729,1.315-3.6532,3.24234-7.137,3.02234-11.21368A.7533.7533,0,0,1,48.96948,283.00042Z"/>
					<path class="shadow fill-red" d="M36.96948,153.00042c.99733-1.09094.89534-2.56712,1.56455-4.79.41986,3.20368,1.8706,5.2695,1.43545,7.79-.95756.07419-1.07878-.59467-.98323-1.25929C39.22939,153.04968,38.29228,152.82494, 36.96948,153.00042Z"/>
					<path class="shadow fill-red" d="M44.96948,188.00042c.90169-.06694,1.00089.52818,1.00038,1.20921q-.00178,2.39539-.00038,4.79079c-2.14407-.65073-.16874-2.7883-1.08064-3.441C43.30313,189.42452,45.11276,188.82766,44.96948,188.00042Z"/>
					<path class="shadow fill-red" d="M5.96948,25.00042C7.613,26.45467,7.709,26.50785,6.39711,28.878c-.16116.29115.17946-2.09305-1.42763-1.87758C5.12012,26.24241,4.47348,25.08576,5.96948,25.00042Z"/>
					<path class="shadow fill-red" d="M5.96948,39.00042c-.86664.06168-1.004-.49335-1.001-1.17574.00406-.94141.001-1.88284.001-2.82426C6.66246,35.99384,6.93866,37.34146,5.96948,39.00042Z"/><path class="e559c199-4c95-4207-b133-850e40b3db69" d="M28.95732,134.18635c.25534-.77037-.60147-2.04057,1.01216-2.18593V135.79"/><path class="aa03007a-93af-4217-9949-6583c5976211" d="M23.53084,100.97337c.71254,1.09618.30937,2.08544.44325,3.01413a.81257.81257,0,0,1-.75207.99388,1.2568,1.2568,0,0,1-.89472-.15327c-.78473-.5899.14122-.79049.35478-.99344C23.50435,103.05328,22.38672,101.86556,23.53084,100.97337Z"/>
				</g>
			</g>
		</svg>		